<?xml version="1.0" encoding="utf-8" standalone="no"?>
<!DOCTYPE svg PUBLIC "-//W3C//DTD SVG 1.1//EN"
  "http://www.w3.org/Graphics/SVG/1.1/DTD/svg11.dtd">
<svg xmlns:xlink="http://www.w3.org/1999/xlink" width="360pt" height="288pt" viewBox="0 0 360 288" xmlns="http://www.w3.org/2000/svg" version="1.1">
 <metadata>
  <rdf:RDF xmlns:dc="http://purl.org/dc/elements/1.1/" xmlns:cc="http://creativecommons.org/ns#" xmlns:rdf="http://www.w3.org/1999/02/22-rdf-syntax-ns#">
   <cc:Work>
    <dc:type rdf:resource="http://purl.org/dc/dcmitype/StillImage"/>
    <dc:date>2023-10-25T23:35:47.246988</dc:date>
    <dc:format>image/svg+xml</dc:format>
    <dc:creator>
     <cc:Agent>
      <dc:title>Matplotlib v3.8.0, https://matplotlib.org/</dc:title>
     </cc:Agent>
    </dc:creator>
   </cc:Work>
  </rdf:RDF>
 </metadata>
 <defs>
  <style type="text/css">*{stroke-linejoin: round; stroke-linecap: butt}</style>
 </defs>
 <g id="figure_1">
  <g id="patch_1">
   <path d="M 0 288 
L 360 288 
L 360 0 
L 0 0 
z
" style="fill: #ffffff"/>
  </g>
  <g id="axes_1">
   <g id="patch_2">
    <path d="M 54.02 246.04 
L 349.2 246.04 
L 349.2 26.88 
L 54.02 26.88 
z
" style="fill: #eaeaf2"/>
   </g>
   <g id="matplotlib.axis_1">
    <g id="xtick_1">
     <g id="line2d_1">
      <path d="M 64.726713 246.04 
L 64.726713 26.88 
" clip-path="url(#p8361cb1a0f)" style="fill: none; stroke: #ffffff; stroke-width: 0.8; stroke-linecap: round"/>
     </g>
     <g id="text_1">
      <!-- 0 -->
      <g style="fill: #262626" transform="translate(61.545463 260.638438) scale(0.1 -0.1)">
       <defs>
        <path id="DejaVuSans-30" d="M 2034 4250 
Q 1547 4250 1301 3770 
Q 1056 3291 1056 2328 
Q 1056 1369 1301 889 
Q 1547 409 2034 409 
Q 2525 409 2770 889 
Q 3016 1369 3016 2328 
Q 3016 3291 2770 3770 
Q 2525 4250 2034 4250 
z
M 2034 4750 
Q 2819 4750 3233 4129 
Q 3647 3509 3647 2328 
Q 3647 1150 3233 529 
Q 2819 -91 2034 -91 
Q 1250 -91 836 529 
Q 422 1150 422 2328 
Q 422 3509 836 4129 
Q 1250 4750 2034 4750 
z
" transform="scale(0.015625)"/>
       </defs>
       <use xlink:href="#DejaVuSans-30"/>
      </g>
     </g>
    </g>
    <g id="xtick_2">
     <g id="line2d_2">
      <path d="M 118.937916 246.04 
L 118.937916 26.88 
" clip-path="url(#p8361cb1a0f)" style="fill: none; stroke: #ffffff; stroke-width: 0.8; stroke-linecap: round"/>
     </g>
     <g id="text_2">
      <!-- 20 -->
      <g style="fill: #262626" transform="translate(112.575416 260.638438) scale(0.1 -0.1)">
       <defs>
        <path id="DejaVuSans-32" d="M 1228 531 
L 3431 531 
L 3431 0 
L 469 0 
L 469 531 
Q 828 903 1448 1529 
Q 2069 2156 2228 2338 
Q 2531 2678 2651 2914 
Q 2772 3150 2772 3378 
Q 2772 3750 2511 3984 
Q 2250 4219 1831 4219 
Q 1534 4219 1204 4116 
Q 875 4013 500 3803 
L 500 4441 
Q 881 4594 1212 4672 
Q 1544 4750 1819 4750 
Q 2544 4750 2975 4387 
Q 3406 4025 3406 3419 
Q 3406 3131 3298 2873 
Q 3191 2616 2906 2266 
Q 2828 2175 2409 1742 
Q 1991 1309 1228 531 
z
" transform="scale(0.015625)"/>
       </defs>
       <use xlink:href="#DejaVuSans-32"/>
       <use xlink:href="#DejaVuSans-30" x="63.623047"/>
      </g>
     </g>
    </g>
    <g id="xtick_3">
     <g id="line2d_3">
      <path d="M 173.149118 246.04 
L 173.149118 26.88 
" clip-path="url(#p8361cb1a0f)" style="fill: none; stroke: #ffffff; stroke-width: 0.8; stroke-linecap: round"/>
     </g>
     <g id="text_3">
      <!-- 40 -->
      <g style="fill: #262626" transform="translate(166.786618 260.638438) scale(0.1 -0.1)">
       <defs>
        <path id="DejaVuSans-34" d="M 2419 4116 
L 825 1625 
L 2419 1625 
L 2419 4116 
z
M 2253 4666 
L 3047 4666 
L 3047 1625 
L 3713 1625 
L 3713 1100 
L 3047 1100 
L 3047 0 
L 2419 0 
L 2419 1100 
L 313 1100 
L 313 1709 
L 2253 4666 
z
" transform="scale(0.015625)"/>
       </defs>
       <use xlink:href="#DejaVuSans-34"/>
       <use xlink:href="#DejaVuSans-30" x="63.623047"/>
      </g>
     </g>
    </g>
    <g id="xtick_4">
     <g id="line2d_4">
      <path d="M 227.360321 246.04 
L 227.360321 26.88 
" clip-path="url(#p8361cb1a0f)" style="fill: none; stroke: #ffffff; stroke-width: 0.8; stroke-linecap: round"/>
     </g>
     <g id="text_4">
      <!-- 60 -->
      <g style="fill: #262626" transform="translate(220.997821 260.638438) scale(0.1 -0.1)">
       <defs>
        <path id="DejaVuSans-36" d="M 2113 2584 
Q 1688 2584 1439 2293 
Q 1191 2003 1191 1497 
Q 1191 994 1439 701 
Q 1688 409 2113 409 
Q 2538 409 2786 701 
Q 3034 994 3034 1497 
Q 3034 2003 2786 2293 
Q 2538 2584 2113 2584 
z
M 3366 4563 
L 3366 3988 
Q 3128 4100 2886 4159 
Q 2644 4219 2406 4219 
Q 1781 4219 1451 3797 
Q 1122 3375 1075 2522 
Q 1259 2794 1537 2939 
Q 1816 3084 2150 3084 
Q 2853 3084 3261 2657 
Q 3669 2231 3669 1497 
Q 3669 778 3244 343 
Q 2819 -91 2113 -91 
Q 1303 -91 875 529 
Q 447 1150 447 2328 
Q 447 3434 972 4092 
Q 1497 4750 2381 4750 
Q 2619 4750 2861 4703 
Q 3103 4656 3366 4563 
z
" transform="scale(0.015625)"/>
       </defs>
       <use xlink:href="#DejaVuSans-36"/>
       <use xlink:href="#DejaVuSans-30" x="63.623047"/>
      </g>
     </g>
    </g>
    <g id="xtick_5">
     <g id="line2d_5">
      <path d="M 281.571524 246.04 
L 281.571524 26.88 
" clip-path="url(#p8361cb1a0f)" style="fill: none; stroke: #ffffff; stroke-width: 0.8; stroke-linecap: round"/>
     </g>
     <g id="text_5">
      <!-- 80 -->
      <g style="fill: #262626" transform="translate(275.209024 260.638438) scale(0.1 -0.1)">
       <defs>
        <path id="DejaVuSans-38" d="M 2034 2216 
Q 1584 2216 1326 1975 
Q 1069 1734 1069 1313 
Q 1069 891 1326 650 
Q 1584 409 2034 409 
Q 2484 409 2743 651 
Q 3003 894 3003 1313 
Q 3003 1734 2745 1975 
Q 2488 2216 2034 2216 
z
M 1403 2484 
Q 997 2584 770 2862 
Q 544 3141 544 3541 
Q 544 4100 942 4425 
Q 1341 4750 2034 4750 
Q 2731 4750 3128 4425 
Q 3525 4100 3525 3541 
Q 3525 3141 3298 2862 
Q 3072 2584 2669 2484 
Q 3125 2378 3379 2068 
Q 3634 1759 3634 1313 
Q 3634 634 3220 271 
Q 2806 -91 2034 -91 
Q 1263 -91 848 271 
Q 434 634 434 1313 
Q 434 1759 690 2068 
Q 947 2378 1403 2484 
z
M 1172 3481 
Q 1172 3119 1398 2916 
Q 1625 2713 2034 2713 
Q 2441 2713 2670 2916 
Q 2900 3119 2900 3481 
Q 2900 3844 2670 4047 
Q 2441 4250 2034 4250 
Q 1625 4250 1398 4047 
Q 1172 3844 1172 3481 
z
" transform="scale(0.015625)"/>
       </defs>
       <use xlink:href="#DejaVuSans-38"/>
       <use xlink:href="#DejaVuSans-30" x="63.623047"/>
      </g>
     </g>
    </g>
    <g id="xtick_6">
     <g id="line2d_6">
      <path d="M 335.782727 246.04 
L 335.782727 26.88 
" clip-path="url(#p8361cb1a0f)" style="fill: none; stroke: #ffffff; stroke-width: 0.8; stroke-linecap: round"/>
     </g>
     <g id="text_6">
      <!-- 100 -->
      <g style="fill: #262626" transform="translate(326.238977 260.638438) scale(0.1 -0.1)">
       <defs>
        <path id="DejaVuSans-31" d="M 794 531 
L 1825 531 
L 1825 4091 
L 703 3866 
L 703 4441 
L 1819 4666 
L 2450 4666 
L 2450 531 
L 3481 531 
L 3481 0 
L 794 0 
L 794 531 
z
" transform="scale(0.015625)"/>
       </defs>
       <use xlink:href="#DejaVuSans-31"/>
       <use xlink:href="#DejaVuSans-30" x="63.623047"/>
       <use xlink:href="#DejaVuSans-30" x="127.246094"/>
      </g>
     </g>
    </g>
    <g id="text_7">
     <!-- step number -->
     <g style="fill: #262626" transform="translate(169.69125 274.316562) scale(0.1 -0.1)">
      <defs>
       <path id="DejaVuSans-73" d="M 2834 3397 
L 2834 2853 
Q 2591 2978 2328 3040 
Q 2066 3103 1784 3103 
Q 1356 3103 1142 2972 
Q 928 2841 928 2578 
Q 928 2378 1081 2264 
Q 1234 2150 1697 2047 
L 1894 2003 
Q 2506 1872 2764 1633 
Q 3022 1394 3022 966 
Q 3022 478 2636 193 
Q 2250 -91 1575 -91 
Q 1294 -91 989 -36 
Q 684 19 347 128 
L 347 722 
Q 666 556 975 473 
Q 1284 391 1588 391 
Q 1994 391 2212 530 
Q 2431 669 2431 922 
Q 2431 1156 2273 1281 
Q 2116 1406 1581 1522 
L 1381 1569 
Q 847 1681 609 1914 
Q 372 2147 372 2553 
Q 372 3047 722 3315 
Q 1072 3584 1716 3584 
Q 2034 3584 2315 3537 
Q 2597 3491 2834 3397 
z
" transform="scale(0.015625)"/>
       <path id="DejaVuSans-74" d="M 1172 4494 
L 1172 3500 
L 2356 3500 
L 2356 3053 
L 1172 3053 
L 1172 1153 
Q 1172 725 1289 603 
Q 1406 481 1766 481 
L 2356 481 
L 2356 0 
L 1766 0 
Q 1100 0 847 248 
Q 594 497 594 1153 
L 594 3053 
L 172 3053 
L 172 3500 
L 594 3500 
L 594 4494 
L 1172 4494 
z
" transform="scale(0.015625)"/>
       <path id="DejaVuSans-65" d="M 3597 1894 
L 3597 1613 
L 953 1613 
Q 991 1019 1311 708 
Q 1631 397 2203 397 
Q 2534 397 2845 478 
Q 3156 559 3463 722 
L 3463 178 
Q 3153 47 2828 -22 
Q 2503 -91 2169 -91 
Q 1331 -91 842 396 
Q 353 884 353 1716 
Q 353 2575 817 3079 
Q 1281 3584 2069 3584 
Q 2775 3584 3186 3129 
Q 3597 2675 3597 1894 
z
M 3022 2063 
Q 3016 2534 2758 2815 
Q 2500 3097 2075 3097 
Q 1594 3097 1305 2825 
Q 1016 2553 972 2059 
L 3022 2063 
z
" transform="scale(0.015625)"/>
       <path id="DejaVuSans-70" d="M 1159 525 
L 1159 -1331 
L 581 -1331 
L 581 3500 
L 1159 3500 
L 1159 2969 
Q 1341 3281 1617 3432 
Q 1894 3584 2278 3584 
Q 2916 3584 3314 3078 
Q 3713 2572 3713 1747 
Q 3713 922 3314 415 
Q 2916 -91 2278 -91 
Q 1894 -91 1617 61 
Q 1341 213 1159 525 
z
M 3116 1747 
Q 3116 2381 2855 2742 
Q 2594 3103 2138 3103 
Q 1681 3103 1420 2742 
Q 1159 2381 1159 1747 
Q 1159 1113 1420 752 
Q 1681 391 2138 391 
Q 2594 391 2855 752 
Q 3116 1113 3116 1747 
z
" transform="scale(0.015625)"/>
       <path id="DejaVuSans-20" transform="scale(0.015625)"/>
       <path id="DejaVuSans-6e" d="M 3513 2113 
L 3513 0 
L 2938 0 
L 2938 2094 
Q 2938 2591 2744 2837 
Q 2550 3084 2163 3084 
Q 1697 3084 1428 2787 
Q 1159 2491 1159 1978 
L 1159 0 
L 581 0 
L 581 3500 
L 1159 3500 
L 1159 2956 
Q 1366 3272 1645 3428 
Q 1925 3584 2291 3584 
Q 2894 3584 3203 3211 
Q 3513 2838 3513 2113 
z
" transform="scale(0.015625)"/>
       <path id="DejaVuSans-75" d="M 544 1381 
L 544 3500 
L 1119 3500 
L 1119 1403 
Q 1119 906 1312 657 
Q 1506 409 1894 409 
Q 2359 409 2629 706 
Q 2900 1003 2900 1516 
L 2900 3500 
L 3475 3500 
L 3475 0 
L 2900 0 
L 2900 538 
Q 2691 219 2414 64 
Q 2138 -91 1772 -91 
Q 1169 -91 856 284 
Q 544 659 544 1381 
z
M 1991 3584 
L 1991 3584 
z
" transform="scale(0.015625)"/>
       <path id="DejaVuSans-6d" d="M 3328 2828 
Q 3544 3216 3844 3400 
Q 4144 3584 4550 3584 
Q 5097 3584 5394 3201 
Q 5691 2819 5691 2113 
L 5691 0 
L 5113 0 
L 5113 2094 
Q 5113 2597 4934 2840 
Q 4756 3084 4391 3084 
Q 3944 3084 3684 2787 
Q 3425 2491 3425 1978 
L 3425 0 
L 2847 0 
L 2847 2094 
Q 2847 2600 2669 2842 
Q 2491 3084 2119 3084 
Q 1678 3084 1418 2786 
Q 1159 2488 1159 1978 
L 1159 0 
L 581 0 
L 581 3500 
L 1159 3500 
L 1159 2956 
Q 1356 3278 1631 3431 
Q 1906 3584 2284 3584 
Q 2666 3584 2933 3390 
Q 3200 3197 3328 2828 
z
" transform="scale(0.015625)"/>
       <path id="DejaVuSans-62" d="M 3116 1747 
Q 3116 2381 2855 2742 
Q 2594 3103 2138 3103 
Q 1681 3103 1420 2742 
Q 1159 2381 1159 1747 
Q 1159 1113 1420 752 
Q 1681 391 2138 391 
Q 2594 391 2855 752 
Q 3116 1113 3116 1747 
z
M 1159 2969 
Q 1341 3281 1617 3432 
Q 1894 3584 2278 3584 
Q 2916 3584 3314 3078 
Q 3713 2572 3713 1747 
Q 3713 922 3314 415 
Q 2916 -91 2278 -91 
Q 1894 -91 1617 61 
Q 1341 213 1159 525 
L 1159 0 
L 581 0 
L 581 4863 
L 1159 4863 
L 1159 2969 
z
" transform="scale(0.015625)"/>
       <path id="DejaVuSans-72" d="M 2631 2963 
Q 2534 3019 2420 3045 
Q 2306 3072 2169 3072 
Q 1681 3072 1420 2755 
Q 1159 2438 1159 1844 
L 1159 0 
L 581 0 
L 581 3500 
L 1159 3500 
L 1159 2956 
Q 1341 3275 1631 3429 
Q 1922 3584 2338 3584 
Q 2397 3584 2469 3576 
Q 2541 3569 2628 3553 
L 2631 2963 
z
" transform="scale(0.015625)"/>
      </defs>
      <use xlink:href="#DejaVuSans-73"/>
      <use xlink:href="#DejaVuSans-74" x="52.099609"/>
      <use xlink:href="#DejaVuSans-65" x="91.308594"/>
      <use xlink:href="#DejaVuSans-70" x="152.832031"/>
      <use xlink:href="#DejaVuSans-20" x="216.308594"/>
      <use xlink:href="#DejaVuSans-6e" x="248.095703"/>
      <use xlink:href="#DejaVuSans-75" x="311.474609"/>
      <use xlink:href="#DejaVuSans-6d" x="374.853516"/>
      <use xlink:href="#DejaVuSans-62" x="472.265625"/>
      <use xlink:href="#DejaVuSans-65" x="535.742188"/>
      <use xlink:href="#DejaVuSans-72" x="597.265625"/>
     </g>
    </g>
   </g>
   <g id="matplotlib.axis_2">
    <g id="ytick_1">
     <g id="line2d_7">
      <path d="M 54.02 236.084062 
L 349.2 236.084062 
" clip-path="url(#p8361cb1a0f)" style="fill: none; stroke: #ffffff; stroke-width: 0.8; stroke-linecap: round"/>
     </g>
     <g id="text_8">
      <!-- 0.00 -->
      <g style="fill: #262626" transform="translate(24.754375 239.883281) scale(0.1 -0.1)">
       <defs>
        <path id="DejaVuSans-2e" d="M 684 794 
L 1344 794 
L 1344 0 
L 684 0 
L 684 794 
z
" transform="scale(0.015625)"/>
       </defs>
       <use xlink:href="#DejaVuSans-30"/>
       <use xlink:href="#DejaVuSans-2e" x="63.623047"/>
       <use xlink:href="#DejaVuSans-30" x="95.410156"/>
       <use xlink:href="#DejaVuSans-30" x="159.033203"/>
      </g>
     </g>
    </g>
    <g id="ytick_2">
     <g id="line2d_8">
      <path d="M 54.02 196.235613 
L 349.2 196.235613 
" clip-path="url(#p8361cb1a0f)" style="fill: none; stroke: #ffffff; stroke-width: 0.8; stroke-linecap: round"/>
     </g>
     <g id="text_9">
      <!-- 0.02 -->
      <g style="fill: #262626" transform="translate(24.754375 200.034832) scale(0.1 -0.1)">
       <use xlink:href="#DejaVuSans-30"/>
       <use xlink:href="#DejaVuSans-2e" x="63.623047"/>
       <use xlink:href="#DejaVuSans-30" x="95.410156"/>
       <use xlink:href="#DejaVuSans-32" x="159.033203"/>
      </g>
     </g>
    </g>
    <g id="ytick_3">
     <g id="line2d_9">
      <path d="M 54.02 156.387164 
L 349.2 156.387164 
" clip-path="url(#p8361cb1a0f)" style="fill: none; stroke: #ffffff; stroke-width: 0.8; stroke-linecap: round"/>
     </g>
     <g id="text_10">
      <!-- 0.04 -->
      <g style="fill: #262626" transform="translate(24.754375 160.186383) scale(0.1 -0.1)">
       <use xlink:href="#DejaVuSans-30"/>
       <use xlink:href="#DejaVuSans-2e" x="63.623047"/>
       <use xlink:href="#DejaVuSans-30" x="95.410156"/>
       <use xlink:href="#DejaVuSans-34" x="159.033203"/>
      </g>
     </g>
    </g>
    <g id="ytick_4">
     <g id="line2d_10">
      <path d="M 54.02 116.538716 
L 349.2 116.538716 
" clip-path="url(#p8361cb1a0f)" style="fill: none; stroke: #ffffff; stroke-width: 0.8; stroke-linecap: round"/>
     </g>
     <g id="text_11">
      <!-- 0.06 -->
      <g style="fill: #262626" transform="translate(24.754375 120.337934) scale(0.1 -0.1)">
       <use xlink:href="#DejaVuSans-30"/>
       <use xlink:href="#DejaVuSans-2e" x="63.623047"/>
       <use xlink:href="#DejaVuSans-30" x="95.410156"/>
       <use xlink:href="#DejaVuSans-36" x="159.033203"/>
      </g>
     </g>
    </g>
    <g id="ytick_5">
     <g id="line2d_11">
      <path d="M 54.02 76.690267 
L 349.2 76.690267 
" clip-path="url(#p8361cb1a0f)" style="fill: none; stroke: #ffffff; stroke-width: 0.8; stroke-linecap: round"/>
     </g>
     <g id="text_12">
      <!-- 0.08 -->
      <g style="fill: #262626" transform="translate(24.754375 80.489486) scale(0.1 -0.1)">
       <use xlink:href="#DejaVuSans-30"/>
       <use xlink:href="#DejaVuSans-2e" x="63.623047"/>
       <use xlink:href="#DejaVuSans-30" x="95.410156"/>
       <use xlink:href="#DejaVuSans-38" x="159.033203"/>
      </g>
     </g>
    </g>
    <g id="ytick_6">
     <g id="line2d_12">
      <path d="M 54.02 36.841818 
L 349.2 36.841818 
" clip-path="url(#p8361cb1a0f)" style="fill: none; stroke: #ffffff; stroke-width: 0.8; stroke-linecap: round"/>
     </g>
     <g id="text_13">
      <!-- 0.10 -->
      <g style="fill: #262626" transform="translate(24.754375 40.641037) scale(0.1 -0.1)">
       <use xlink:href="#DejaVuSans-30"/>
       <use xlink:href="#DejaVuSans-2e" x="63.623047"/>
       <use xlink:href="#DejaVuSans-31" x="95.410156"/>
       <use xlink:href="#DejaVuSans-30" x="159.033203"/>
      </g>
     </g>
    </g>
    <g id="text_14">
     <!-- learning rate -->
     <g style="fill: #262626" transform="translate(18.674688 168.60375) rotate(-90) scale(0.1 -0.1)">
      <defs>
       <path id="DejaVuSans-6c" d="M 603 4863 
L 1178 4863 
L 1178 0 
L 603 0 
L 603 4863 
z
" transform="scale(0.015625)"/>
       <path id="DejaVuSans-61" d="M 2194 1759 
Q 1497 1759 1228 1600 
Q 959 1441 959 1056 
Q 959 750 1161 570 
Q 1363 391 1709 391 
Q 2188 391 2477 730 
Q 2766 1069 2766 1631 
L 2766 1759 
L 2194 1759 
z
M 3341 1997 
L 3341 0 
L 2766 0 
L 2766 531 
Q 2569 213 2275 61 
Q 1981 -91 1556 -91 
Q 1019 -91 701 211 
Q 384 513 384 1019 
Q 384 1609 779 1909 
Q 1175 2209 1959 2209 
L 2766 2209 
L 2766 2266 
Q 2766 2663 2505 2880 
Q 2244 3097 1772 3097 
Q 1472 3097 1187 3025 
Q 903 2953 641 2809 
L 641 3341 
Q 956 3463 1253 3523 
Q 1550 3584 1831 3584 
Q 2591 3584 2966 3190 
Q 3341 2797 3341 1997 
z
" transform="scale(0.015625)"/>
       <path id="DejaVuSans-69" d="M 603 3500 
L 1178 3500 
L 1178 0 
L 603 0 
L 603 3500 
z
M 603 4863 
L 1178 4863 
L 1178 4134 
L 603 4134 
L 603 4863 
z
" transform="scale(0.015625)"/>
       <path id="DejaVuSans-67" d="M 2906 1791 
Q 2906 2416 2648 2759 
Q 2391 3103 1925 3103 
Q 1463 3103 1205 2759 
Q 947 2416 947 1791 
Q 947 1169 1205 825 
Q 1463 481 1925 481 
Q 2391 481 2648 825 
Q 2906 1169 2906 1791 
z
M 3481 434 
Q 3481 -459 3084 -895 
Q 2688 -1331 1869 -1331 
Q 1566 -1331 1297 -1286 
Q 1028 -1241 775 -1147 
L 775 -588 
Q 1028 -725 1275 -790 
Q 1522 -856 1778 -856 
Q 2344 -856 2625 -561 
Q 2906 -266 2906 331 
L 2906 616 
Q 2728 306 2450 153 
Q 2172 0 1784 0 
Q 1141 0 747 490 
Q 353 981 353 1791 
Q 353 2603 747 3093 
Q 1141 3584 1784 3584 
Q 2172 3584 2450 3431 
Q 2728 3278 2906 2969 
L 2906 3500 
L 3481 3500 
L 3481 434 
z
" transform="scale(0.015625)"/>
      </defs>
      <use xlink:href="#DejaVuSans-6c"/>
      <use xlink:href="#DejaVuSans-65" x="27.783203"/>
      <use xlink:href="#DejaVuSans-61" x="89.306641"/>
      <use xlink:href="#DejaVuSans-72" x="150.585938"/>
      <use xlink:href="#DejaVuSans-6e" x="189.949219"/>
      <use xlink:href="#DejaVuSans-69" x="253.328125"/>
      <use xlink:href="#DejaVuSans-6e" x="281.111328"/>
      <use xlink:href="#DejaVuSans-67" x="344.490234"/>
      <use xlink:href="#DejaVuSans-20" x="407.966797"/>
      <use xlink:href="#DejaVuSans-72" x="439.753906"/>
      <use xlink:href="#DejaVuSans-61" x="480.867188"/>
      <use xlink:href="#DejaVuSans-74" x="542.146484"/>
      <use xlink:href="#DejaVuSans-65" x="581.355469"/>
     </g>
    </g>
   </g>
   <g id="line2d_13">
    <path d="M 67.437273 36.841818 
L 70.147833 38.435756 
L 72.858393 40.029694 
L 75.568953 41.623632 
L 78.279513 43.21757 
L 80.990073 44.811508 
L 83.700634 46.405446 
L 86.411194 47.999384 
L 89.121754 49.593322 
L 91.832314 51.18726 
L 94.542874 52.781198 
L 97.253434 54.375136 
L 99.963994 55.969074 
L 102.674555 57.563012 
L 105.385115 59.156949 
L 108.095675 60.750887 
L 110.806235 62.344825 
L 113.516795 63.938763 
L 116.227355 65.532701 
L 118.937916 67.126639 
L 121.648476 68.720577 
L 124.359036 70.314515 
L 127.069596 71.908453 
L 129.780156 73.502391 
L 132.490716 75.096329 
L 135.201276 76.690267 
L 137.911837 78.284205 
L 140.622397 79.878143 
L 143.332957 81.472081 
L 146.043517 83.066019 
L 148.754077 84.659957 
L 151.464637 86.253895 
L 154.175197 87.847833 
L 156.885758 89.441771 
L 159.596318 91.035708 
L 162.306878 92.629646 
L 165.017438 94.223584 
L 167.727998 95.817522 
L 170.438558 97.41146 
L 173.149118 99.005398 
L 175.859679 100.599336 
L 178.570239 102.193274 
L 181.280799 103.787212 
L 183.991359 105.38115 
L 186.701919 106.975088 
L 189.412479 108.569026 
L 192.123039 110.162964 
L 194.8336 111.756902 
L 197.54416 113.35084 
L 200.25472 114.944778 
L 202.96528 116.538716 
L 205.67584 118.132654 
L 208.3864 119.726592 
L 211.096961 121.32053 
L 213.807521 122.914468 
L 216.518081 124.508405 
L 219.228641 126.102343 
L 221.939201 127.696281 
L 224.649761 129.290219 
L 227.360321 130.884157 
L 230.070882 132.478095 
L 232.781442 134.072033 
L 235.492002 135.665971 
L 238.202562 137.259909 
L 240.913122 138.853847 
L 243.623682 140.447785 
L 246.334242 142.041723 
L 249.044803 143.635661 
L 251.755363 145.229599 
L 254.465923 146.823537 
L 257.176483 148.417475 
L 259.887043 150.011413 
L 262.597603 151.605351 
L 265.308163 153.199289 
L 268.018724 154.793227 
L 270.729284 156.387164 
L 273.439844 157.981102 
L 276.150404 159.57504 
L 278.860964 161.168978 
L 281.571524 162.762916 
L 284.282084 164.356854 
L 286.992645 165.950792 
L 289.703205 167.54473 
L 292.413765 169.138668 
L 295.124325 170.732606 
L 297.834885 172.326544 
L 300.545445 173.920482 
L 303.256006 175.51442 
L 305.966566 177.108358 
L 308.677126 178.702296 
L 311.387686 180.296234 
L 314.098246 181.890172 
L 316.808806 183.48411 
L 319.519366 185.078048 
L 322.229927 186.671986 
L 324.940487 188.265923 
L 327.651047 189.859861 
L 330.361607 191.453799 
L 333.072167 193.047737 
L 335.782727 194.641675 
" clip-path="url(#p8361cb1a0f)" style="fill: none; stroke: #1f77b4; stroke-width: 2; stroke-linecap: round"/>
   </g>
   <g id="line2d_14">
    <path d="M 67.437273 36.841818 
L 70.147833 56.766043 
L 72.858393 74.697845 
L 75.568953 90.836466 
L 78.279513 105.361226 
L 80.990073 118.433509 
L 83.700634 130.198565 
L 86.411194 140.787114 
L 89.121754 150.316809 
L 91.832314 158.893534 
L 94.542874 166.612587 
L 97.253434 173.559735 
L 99.963994 179.812167 
L 102.674555 185.439357 
L 105.385115 190.503827 
L 108.095675 195.061851 
L 110.806235 199.164072 
L 113.516795 202.856071 
L 116.227355 206.17887 
L 118.937916 209.169389 
L 121.648476 211.860857 
L 124.359036 214.283177 
L 127.069596 216.463266 
L 129.780156 218.425345 
L 132.490716 220.191217 
L 135.201276 221.780501 
L 137.911837 223.210857 
L 140.622397 224.498178 
L 143.332957 225.656766 
L 146.043517 226.699496 
L 148.754077 227.637952 
L 151.464637 228.482563 
L 154.175197 229.242713 
L 156.885758 229.926848 
L 159.596318 230.54257 
L 162.306878 231.096719 
L 165.017438 231.595453 
L 167.727998 232.044314 
L 170.438558 232.448289 
L 173.149118 232.811866 
L 175.859679 233.139086 
L 178.570239 233.433583 
L 181.280799 233.698631 
L 183.991359 233.937174 
L 186.701919 234.151863 
L 189.412479 234.345083 
L 192.123039 234.518981 
L 194.8336 234.675489 
L 197.54416 234.816346 
L 200.25472 234.943118 
L 202.96528 235.057212 
L 205.67584 235.159897 
L 208.3864 235.252314 
L 211.096961 235.335489 
L 213.807521 235.410346 
L 216.518081 235.477717 
L 219.228641 235.538352 
L 221.939201 235.592923 
L 224.649761 235.642037 
L 227.360321 235.686239 
L 230.070882 235.726022 
L 232.781442 235.761826 
L 235.492002 235.794049 
L 238.202562 235.823051 
L 240.913122 235.849152 
L 243.623682 235.872643 
L 246.334242 235.893785 
L 249.044803 235.912812 
L 251.755363 235.929937 
L 254.465923 235.94535 
L 257.176483 235.959221 
L 259.887043 235.971705 
L 262.597603 235.982941 
L 265.308163 235.993053 
L 268.018724 236.002154 
L 270.729284 236.010345 
L 273.439844 236.017716 
L 276.150404 236.024351 
L 278.860964 236.030322 
L 281.571524 236.035696 
L 284.282084 236.040533 
L 286.992645 236.044886 
L 289.703205 236.048803 
L 292.413765 236.052329 
L 295.124325 236.055502 
L 297.834885 236.058358 
L 300.545445 236.060929 
L 303.256006 236.063242 
L 305.966566 236.065324 
L 308.677126 236.067198 
L 311.387686 236.068884 
L 314.098246 236.070402 
L 316.808806 236.071768 
L 319.519366 236.072997 
L 322.229927 236.074104 
L 324.940487 236.0751 
L 327.651047 236.075996 
L 330.361607 236.076803 
L 333.072167 236.077528 
L 335.782727 236.078182 
" clip-path="url(#p8361cb1a0f)" style="fill: none; stroke: #ff7f0e; stroke-width: 2; stroke-linecap: round"/>
   </g>
   <g id="line2d_15">
    <path d="M 67.437273 36.881144 
L 70.147833 36.999082 
L 72.858393 37.195516 
L 75.568953 37.470252 
L 78.279513 37.823019 
L 80.990073 38.253469 
L 83.700634 38.761178 
L 86.411194 39.345643 
L 89.121754 40.006288 
L 91.832314 40.742462 
L 94.542874 41.553437 
L 97.253434 42.438414 
L 99.963994 43.396519 
L 102.674555 44.426807 
L 105.385115 45.52826 
L 108.095675 46.699792 
L 110.806235 47.940247 
L 113.516795 49.2484 
L 116.227355 50.62296 
L 118.937916 52.062571 
L 121.648476 53.565813 
L 124.359036 55.131201 
L 127.069596 56.757191 
L 129.780156 58.442178 
L 132.490716 60.184499 
L 135.201276 61.982435 
L 137.911837 63.834212 
L 140.622397 65.738001 
L 143.332957 67.691925 
L 146.043517 69.694055 
L 148.754077 71.742414 
L 151.464637 73.834983 
L 154.175197 75.969694 
L 156.885758 78.144443 
L 159.596318 80.357081 
L 162.306878 82.605427 
L 165.017438 84.887261 
L 167.727998 87.200331 
L 170.438558 89.542354 
L 173.149118 91.91102 
L 175.859679 94.30399 
L 178.570239 96.718903 
L 181.280799 99.153376 
L 183.991359 101.605006 
L 186.701919 104.071374 
L 189.412479 106.550046 
L 192.123039 109.038575 
L 194.8336 111.534506 
L 197.54416 114.035376 
L 200.25472 116.538716 
L 202.96528 119.042056 
L 205.67584 121.542925 
L 208.3864 124.038856 
L 211.096961 126.527386 
L 213.807521 129.006057 
L 216.518081 131.472425 
L 219.228641 133.924055 
L 221.939201 136.358528 
L 224.649761 138.773441 
L 227.360321 141.166411 
L 230.070882 143.535077 
L 232.781442 145.8771 
L 235.492002 148.19017 
L 238.202562 150.472004 
L 240.913122 152.72035 
L 243.623682 154.932989 
L 246.334242 157.107737 
L 249.044803 159.242449 
L 251.755363 161.335017 
L 254.465923 163.383377 
L 257.176483 165.385506 
L 259.887043 167.33943 
L 262.597603 169.24322 
L 265.308163 171.094996 
L 268.018724 172.892932 
L 270.729284 174.635254 
L 273.439844 176.320241 
L 276.150404 177.946231 
L 278.860964 179.511619 
L 281.571524 181.01486 
L 284.282084 182.454471 
L 286.992645 183.829032 
L 289.703205 185.137185 
L 292.413765 186.377639 
L 295.124325 187.549171 
L 297.834885 188.650625 
L 300.545445 189.680912 
L 303.256006 190.639017 
L 305.966566 191.523994 
L 308.677126 192.334969 
L 311.387686 193.071143 
L 314.098246 193.731789 
L 316.808806 194.316254 
L 319.519366 194.823962 
L 322.229927 195.254412 
L 324.940487 195.607179 
L 327.651047 195.881916 
L 330.361607 196.07835 
L 333.072167 196.196288 
L 335.782727 196.235613 
" clip-path="url(#p8361cb1a0f)" style="fill: none; stroke: #2ca02c; stroke-width: 2; stroke-linecap: round"/>
   </g>
   <g id="line2d_16">
    <path d="M 67.437273 36.841818 
L 70.147833 95.19852 
L 72.858393 121.051499 
L 75.568953 136.46294 
L 78.279513 146.980222 
L 80.990073 154.743757 
L 83.700634 160.777572 
L 86.411194 165.641291 
L 89.121754 169.669981 
L 91.832314 173.078132 
L 94.542874 176.010265 
L 97.253434 178.56778 
L 99.963994 180.824206 
L 102.674555 182.834332 
L 105.385115 184.639936 
L 108.095675 186.273501 
L 110.806235 187.76072 
L 113.516795 189.122215 
L 116.227355 190.374756 
L 118.937916 191.532142 
L 121.648476 192.60584 
L 124.359036 193.605473 
L 127.069596 194.539182 
L 129.780156 195.413909 
L 132.490716 196.235613 
L 135.201276 197.009443 
L 137.911837 197.739874 
L 140.622397 198.430817 
L 143.332957 199.085706 
L 146.043517 199.707572 
L 148.754077 200.299099 
L 151.464637 200.862677 
L 154.175197 201.400439 
L 156.885758 201.914299 
L 159.596318 202.405976 
L 162.306878 202.877021 
L 165.017438 203.328839 
L 167.727998 203.762702 
L 170.438558 204.179769 
L 173.149118 204.581097 
L 175.859679 204.967651 
L 178.570239 205.340316 
L 181.280799 205.699905 
L 183.991359 206.047164 
L 186.701919 206.382782 
L 189.412479 206.707396 
L 192.123039 207.021594 
L 194.8336 207.325921 
L 197.54416 207.620884 
L 200.25472 207.906954 
L 202.96528 208.184567 
L 205.67584 208.454134 
L 208.3864 208.716035 
L 211.096961 208.970627 
L 213.807521 209.218243 
L 216.518081 209.459197 
L 219.228641 209.693782 
L 221.939201 209.922274 
L 224.649761 210.144931 
L 227.360321 210.361999 
L 230.070882 210.573707 
L 232.781442 210.780272 
L 235.492002 210.981899 
L 238.202562 211.178782 
L 240.913122 211.371103 
L 243.623682 211.559037 
L 246.334242 211.742748 
L 249.044803 211.922391 
L 251.755363 212.098114 
L 254.465923 212.270059 
L 257.176483 212.438358 
L 259.887043 212.603138 
L 262.597603 212.764521 
L 265.308163 212.922622 
L 268.018724 213.077549 
L 270.729284 213.229409 
L 273.439844 213.378301 
L 276.150404 213.52432 
L 278.860964 213.667558 
L 281.571524 213.808102 
L 284.282084 213.946035 
L 286.992645 214.081437 
L 289.703205 214.214385 
L 292.413765 214.344951 
L 295.124325 214.473206 
L 297.834885 214.599218 
L 300.545445 214.723051 
L 303.256006 214.844767 
L 305.966566 214.964426 
L 308.677126 215.082085 
L 311.387686 215.1978 
L 314.098246 215.311622 
L 316.808806 215.423604 
L 319.519366 215.533794 
L 322.229927 215.642239 
L 324.940487 215.748986 
L 327.651047 215.854077 
L 330.361607 215.957556 
L 333.072167 216.059463 
L 335.782727 216.159838 
" clip-path="url(#p8361cb1a0f)" style="fill: none; stroke: #d62728; stroke-width: 2; stroke-linecap: round"/>
   </g>
   <g id="patch_3">
    <path d="M 54.02 246.04 
L 54.02 26.88 
" style="fill: none; stroke: #ffffff; stroke-width: 0.8; stroke-linejoin: miter; stroke-linecap: square"/>
   </g>
   <g id="patch_4">
    <path d="M 349.2 246.04 
L 349.2 26.88 
" style="fill: none; stroke: #ffffff; stroke-width: 0.8; stroke-linejoin: miter; stroke-linecap: square"/>
   </g>
   <g id="patch_5">
    <path d="M 54.02 246.04 
L 349.2 246.04 
" style="fill: none; stroke: #ffffff; stroke-width: 0.8; stroke-linejoin: miter; stroke-linecap: square"/>
   </g>
   <g id="patch_6">
    <path d="M 54.02 26.88 
L 349.2 26.88 
" style="fill: none; stroke: #ffffff; stroke-width: 0.8; stroke-linejoin: miter; stroke-linecap: square"/>
   </g>
   <g id="text_15">
    <!-- Learning rate schedulers -->
    <g style="fill: #262626" transform="translate(127.077812 20.88) scale(0.12 -0.12)">
     <defs>
      <path id="DejaVuSans-4c" d="M 628 4666 
L 1259 4666 
L 1259 531 
L 3531 531 
L 3531 0 
L 628 0 
L 628 4666 
z
" transform="scale(0.015625)"/>
      <path id="DejaVuSans-63" d="M 3122 3366 
L 3122 2828 
Q 2878 2963 2633 3030 
Q 2388 3097 2138 3097 
Q 1578 3097 1268 2742 
Q 959 2388 959 1747 
Q 959 1106 1268 751 
Q 1578 397 2138 397 
Q 2388 397 2633 464 
Q 2878 531 3122 666 
L 3122 134 
Q 2881 22 2623 -34 
Q 2366 -91 2075 -91 
Q 1284 -91 818 406 
Q 353 903 353 1747 
Q 353 2603 823 3093 
Q 1294 3584 2113 3584 
Q 2378 3584 2631 3529 
Q 2884 3475 3122 3366 
z
" transform="scale(0.015625)"/>
      <path id="DejaVuSans-68" d="M 3513 2113 
L 3513 0 
L 2938 0 
L 2938 2094 
Q 2938 2591 2744 2837 
Q 2550 3084 2163 3084 
Q 1697 3084 1428 2787 
Q 1159 2491 1159 1978 
L 1159 0 
L 581 0 
L 581 4863 
L 1159 4863 
L 1159 2956 
Q 1366 3272 1645 3428 
Q 1925 3584 2291 3584 
Q 2894 3584 3203 3211 
Q 3513 2838 3513 2113 
z
" transform="scale(0.015625)"/>
      <path id="DejaVuSans-64" d="M 2906 2969 
L 2906 4863 
L 3481 4863 
L 3481 0 
L 2906 0 
L 2906 525 
Q 2725 213 2448 61 
Q 2172 -91 1784 -91 
Q 1150 -91 751 415 
Q 353 922 353 1747 
Q 353 2572 751 3078 
Q 1150 3584 1784 3584 
Q 2172 3584 2448 3432 
Q 2725 3281 2906 2969 
z
M 947 1747 
Q 947 1113 1208 752 
Q 1469 391 1925 391 
Q 2381 391 2643 752 
Q 2906 1113 2906 1747 
Q 2906 2381 2643 2742 
Q 2381 3103 1925 3103 
Q 1469 3103 1208 2742 
Q 947 2381 947 1747 
z
" transform="scale(0.015625)"/>
     </defs>
     <use xlink:href="#DejaVuSans-4c"/>
     <use xlink:href="#DejaVuSans-65" x="53.962891"/>
     <use xlink:href="#DejaVuSans-61" x="115.486328"/>
     <use xlink:href="#DejaVuSans-72" x="176.765625"/>
     <use xlink:href="#DejaVuSans-6e" x="216.128906"/>
     <use xlink:href="#DejaVuSans-69" x="279.507812"/>
     <use xlink:href="#DejaVuSans-6e" x="307.291016"/>
     <use xlink:href="#DejaVuSans-67" x="370.669922"/>
     <use xlink:href="#DejaVuSans-20" x="434.146484"/>
     <use xlink:href="#DejaVuSans-72" x="465.933594"/>
     <use xlink:href="#DejaVuSans-61" x="507.046875"/>
     <use xlink:href="#DejaVuSans-74" x="568.326172"/>
     <use xlink:href="#DejaVuSans-65" x="607.535156"/>
     <use xlink:href="#DejaVuSans-20" x="669.058594"/>
     <use xlink:href="#DejaVuSans-73" x="700.845703"/>
     <use xlink:href="#DejaVuSans-63" x="752.945312"/>
     <use xlink:href="#DejaVuSans-68" x="807.925781"/>
     <use xlink:href="#DejaVuSans-65" x="871.304688"/>
     <use xlink:href="#DejaVuSans-64" x="932.828125"/>
     <use xlink:href="#DejaVuSans-75" x="996.304688"/>
     <use xlink:href="#DejaVuSans-6c" x="1059.683594"/>
     <use xlink:href="#DejaVuSans-65" x="1087.466797"/>
     <use xlink:href="#DejaVuSans-72" x="1148.990234"/>
     <use xlink:href="#DejaVuSans-73" x="1190.103516"/>
    </g>
   </g>
   <g id="legend_1">
    <g id="patch_7">
     <path d="M 225.6 93.5925 
L 342.2 93.5925 
Q 344.2 93.5925 344.2 91.5925 
L 344.2 33.88 
Q 344.2 31.88 342.2 31.88 
L 225.6 31.88 
Q 223.6 31.88 223.6 33.88 
L 223.6 91.5925 
Q 223.6 93.5925 225.6 93.5925 
z
" style="fill: #eaeaf2; opacity: 0.8; stroke: #cccccc; stroke-linejoin: miter"/>
    </g>
    <g id="line2d_17">
     <path d="M 227.6 39.978437 
L 237.6 39.978437 
L 247.6 39.978437 
" style="fill: none; stroke: #1f77b4; stroke-width: 2; stroke-linecap: round"/>
    </g>
    <g id="text_16">
     <!-- linear decay -->
     <g style="fill: #262626" transform="translate(255.6 43.478437) scale(0.1 -0.1)">
      <defs>
       <path id="DejaVuSans-79" d="M 2059 -325 
Q 1816 -950 1584 -1140 
Q 1353 -1331 966 -1331 
L 506 -1331 
L 506 -850 
L 844 -850 
Q 1081 -850 1212 -737 
Q 1344 -625 1503 -206 
L 1606 56 
L 191 3500 
L 800 3500 
L 1894 763 
L 2988 3500 
L 3597 3500 
L 2059 -325 
z
" transform="scale(0.015625)"/>
      </defs>
      <use xlink:href="#DejaVuSans-6c"/>
      <use xlink:href="#DejaVuSans-69" x="27.783203"/>
      <use xlink:href="#DejaVuSans-6e" x="55.566406"/>
      <use xlink:href="#DejaVuSans-65" x="118.945312"/>
      <use xlink:href="#DejaVuSans-61" x="180.46875"/>
      <use xlink:href="#DejaVuSans-72" x="241.748047"/>
      <use xlink:href="#DejaVuSans-20" x="282.861328"/>
      <use xlink:href="#DejaVuSans-64" x="314.648438"/>
      <use xlink:href="#DejaVuSans-65" x="378.125"/>
      <use xlink:href="#DejaVuSans-63" x="439.648438"/>
      <use xlink:href="#DejaVuSans-61" x="494.628906"/>
      <use xlink:href="#DejaVuSans-79" x="555.908203"/>
     </g>
    </g>
    <g id="line2d_18">
     <path d="M 227.6 54.656562 
L 237.6 54.656562 
L 247.6 54.656562 
" style="fill: none; stroke: #ff7f0e; stroke-width: 2; stroke-linecap: round"/>
    </g>
    <g id="text_17">
     <!-- exp decay -->
     <g style="fill: #262626" transform="translate(255.6 58.156562) scale(0.1 -0.1)">
      <defs>
       <path id="DejaVuSans-78" d="M 3513 3500 
L 2247 1797 
L 3578 0 
L 2900 0 
L 1881 1375 
L 863 0 
L 184 0 
L 1544 1831 
L 300 3500 
L 978 3500 
L 1906 2253 
L 2834 3500 
L 3513 3500 
z
" transform="scale(0.015625)"/>
      </defs>
      <use xlink:href="#DejaVuSans-65"/>
      <use xlink:href="#DejaVuSans-78" x="59.773438"/>
      <use xlink:href="#DejaVuSans-70" x="118.953125"/>
      <use xlink:href="#DejaVuSans-20" x="182.429688"/>
      <use xlink:href="#DejaVuSans-64" x="214.216797"/>
      <use xlink:href="#DejaVuSans-65" x="277.693359"/>
      <use xlink:href="#DejaVuSans-63" x="339.216797"/>
      <use xlink:href="#DejaVuSans-61" x="394.197266"/>
      <use xlink:href="#DejaVuSans-79" x="455.476562"/>
     </g>
    </g>
    <g id="line2d_19">
     <path d="M 227.6 69.334687 
L 237.6 69.334687 
L 247.6 69.334687 
" style="fill: none; stroke: #2ca02c; stroke-width: 2; stroke-linecap: round"/>
    </g>
    <g id="text_18">
     <!-- cosine annealing -->
     <g style="fill: #262626" transform="translate(255.6 72.834687) scale(0.1 -0.1)">
      <defs>
       <path id="DejaVuSans-6f" d="M 1959 3097 
Q 1497 3097 1228 2736 
Q 959 2375 959 1747 
Q 959 1119 1226 758 
Q 1494 397 1959 397 
Q 2419 397 2687 759 
Q 2956 1122 2956 1747 
Q 2956 2369 2687 2733 
Q 2419 3097 1959 3097 
z
M 1959 3584 
Q 2709 3584 3137 3096 
Q 3566 2609 3566 1747 
Q 3566 888 3137 398 
Q 2709 -91 1959 -91 
Q 1206 -91 779 398 
Q 353 888 353 1747 
Q 353 2609 779 3096 
Q 1206 3584 1959 3584 
z
" transform="scale(0.015625)"/>
      </defs>
      <use xlink:href="#DejaVuSans-63"/>
      <use xlink:href="#DejaVuSans-6f" x="54.980469"/>
      <use xlink:href="#DejaVuSans-73" x="116.162109"/>
      <use xlink:href="#DejaVuSans-69" x="168.261719"/>
      <use xlink:href="#DejaVuSans-6e" x="196.044922"/>
      <use xlink:href="#DejaVuSans-65" x="259.423828"/>
      <use xlink:href="#DejaVuSans-20" x="320.947266"/>
      <use xlink:href="#DejaVuSans-61" x="352.734375"/>
      <use xlink:href="#DejaVuSans-6e" x="414.013672"/>
      <use xlink:href="#DejaVuSans-6e" x="477.392578"/>
      <use xlink:href="#DejaVuSans-65" x="540.771484"/>
      <use xlink:href="#DejaVuSans-61" x="602.294922"/>
      <use xlink:href="#DejaVuSans-6c" x="663.574219"/>
      <use xlink:href="#DejaVuSans-69" x="691.357422"/>
      <use xlink:href="#DejaVuSans-6e" x="719.140625"/>
      <use xlink:href="#DejaVuSans-67" x="782.519531"/>
     </g>
    </g>
    <g id="line2d_20">
     <path d="M 227.6 84.012812 
L 237.6 84.012812 
L 247.6 84.012812 
" style="fill: none; stroke: #d62728; stroke-width: 2; stroke-linecap: round"/>
    </g>
    <g id="text_19">
     <!-- inv scale -->
     <g style="fill: #262626" transform="translate(255.6 87.512812) scale(0.1 -0.1)">
      <defs>
       <path id="DejaVuSans-76" d="M 191 3500 
L 800 3500 
L 1894 563 
L 2988 3500 
L 3597 3500 
L 2284 0 
L 1503 0 
L 191 3500 
z
" transform="scale(0.015625)"/>
      </defs>
      <use xlink:href="#DejaVuSans-69"/>
      <use xlink:href="#DejaVuSans-6e" x="27.783203"/>
      <use xlink:href="#DejaVuSans-76" x="91.162109"/>
      <use xlink:href="#DejaVuSans-20" x="150.341797"/>
      <use xlink:href="#DejaVuSans-73" x="182.128906"/>
      <use xlink:href="#DejaVuSans-63" x="234.228516"/>
      <use xlink:href="#DejaVuSans-61" x="289.208984"/>
      <use xlink:href="#DejaVuSans-6c" x="350.488281"/>
      <use xlink:href="#DejaVuSans-65" x="378.271484"/>
     </g>
    </g>
   </g>
  </g>
 </g>
 <defs>
  <clipPath id="p8361cb1a0f">
   <rect x="54.02" y="26.88" width="295.18" height="219.16"/>
  </clipPath>
 </defs>
</svg>
